<svg id="Iconset_Sites_-_Languages" data-name="Iconset Sites - Languages" xmlns="http://www.w3.org/2000/svg" width="24.438" height="24.689" viewBox="0 0 24.438 24.689">
  <g id="Symbols" transform="translate(0)">
    <g id="Icon---Language-switcher">
      <g id="Gruppe_469" data-name="Gruppe 469">
        <path id="A" d="M6.354.788l3.368,9.228c.284.778.837.831,1.471.887a.518.518,0,0,1,0,.532l-.9-.022-.475-.007-.494,0c-.638,0-1.537.016-2.142.032a.518.518,0,0,1,0-.532l.283-.021c.638-.054,1.1-.153.926-.64L7.449,7.516H4c-.392,0-.49.065-.572.274l-.9,2.339c-.255.663.513.732,1.128.774a.518.518,0,0,1,0,.532l-1.241-.026c-.292,0-.584-.007-.852-.007-.5,0-1.03.016-1.455.032a.518.518,0,0,1,0-.532A1.569,1.569,0,0,0,1.743,9.758L5.455,1.111A2.436,2.436,0,0,0,6.354.788Zm-.7,1.662h-.1L3.882,6.624c-.062.166.052.215.412.215H7.187Z" transform="translate(-0.035 -0.788)" fill="#3e3938"/>
        <path id="ج" d="M22.427,13.2a5.991,5.991,0,0,1-2.245,1.56l-.323.141a11.208,11.208,0,0,1-1.639.6,5.035,5.035,0,0,1-1.368.192,3.78,3.78,0,0,1-3.235-1.817,6.334,6.334,0,0,1-1.073-3.668,7.608,7.608,0,0,1,1.816-4.66L14.742,5l.107-.149a1.878,1.878,0,0,0-.726-.133,2.3,2.3,0,0,0-.443.054,4.34,4.34,0,0,0-.545.15q-.279.1-.541.213a1.443,1.443,0,0,0-.363.2,3.044,3.044,0,0,0,.432-.688l.083-.171a4.479,4.479,0,0,1,.414-.717,1.792,1.792,0,0,1,.439-.433,1.451,1.451,0,0,1,.519-.217,3.317,3.317,0,0,1,.663-.058,4.38,4.38,0,0,1,.663.075l1.858.317a4.38,4.38,0,0,0,.663.075A8.022,8.022,0,0,0,20.7,3.029L20.29,4.854a1.574,1.574,0,0,0-.224-.021l-.317,0h0a8.322,8.322,0,0,0-2.618.388,5.8,5.8,0,0,0-2.006,1.109,4.794,4.794,0,0,0-1.275,1.75,5.791,5.791,0,0,0-.443,2.313q0,3.484,4.6,3.484A15.415,15.415,0,0,0,22.427,13.2ZM18.668,9.256l-.777,1.309-1.9-1.092.735-1.309Z" transform="translate(2.011 -0.446)" fill="#3e3938"/>
        <path id="哈" d="M13.984,18.3H7.931v5.573H8.9v-.788H13v.788h.981ZM8.9,22.16V19.214H13V22.16Zm1.6-10.856a13.546,13.546,0,0,1-3.868,4.218V12.341H2.984V22.547h.953V21.51H5.689v.747h.939V15.8l.462.664a14.407,14.407,0,0,0,3.854-4.245,11.8,11.8,0,0,0,3.84,4.176l.589-.857A11.169,11.169,0,0,1,11.406,11.3ZM3.937,20.569V13.254H5.689v7.315Zm4.554-4.992H13.34V16.5H8.491Z" transform="translate(0.46 0.815)" fill="#3e3938"/>
      </g>
    </g>
  </g>
</svg>
