<svg id="Layer_2" data-name="Layer 2" xmlns="http://www.w3.org/2000/svg" viewBox="0 0 21 401"><defs><style>.cls-1{fill:#61150a;}</style></defs><ellipse class="cls-1" cx="5.52" cy="395.49" rx="5.52" ry="5.51"/><ellipse class="cls-1" cx="15.48" cy="385.99" rx="5.52" ry="5.51"/><ellipse class="cls-1" cx="5.52" cy="376.92" rx="5.52" ry="5.51"/><ellipse class="cls-1" cx="15.48" cy="367.43" rx="5.52" ry="5.51"/><ellipse class="cls-1" cx="5.52" cy="357.49" rx="5.52" ry="5.51"/><ellipse class="cls-1" cx="15.48" cy="347.99" rx="5.52" ry="5.51"/><ellipse class="cls-1" cx="5.52" cy="339.02" rx="5.52" ry="5.51"/><ellipse class="cls-1" cx="15.48" cy="329.53" rx="5.52" ry="5.51"/><ellipse class="cls-1" cx="5.52" cy="319.78" rx="5.52" ry="5.51"/><ellipse class="cls-1" cx="15.48" cy="310.19" rx="5.52" ry="5.51"/><ellipse class="cls-1" cx="5.52" cy="301.21" rx="5.52" ry="5.51"/><ellipse class="cls-1" cx="15.29" cy="291.54" rx="4.84" ry="4.83"/><ellipse class="cls-1" cx="5.52" cy="281.77" rx="4.84" ry="4.83"/><ellipse class="cls-1" cx="15.29" cy="272.3" rx="4.84" ry="4.83"/><ellipse class="cls-1" cx="5.52" cy="262.53" rx="4.84" ry="4.83"/><ellipse class="cls-1" cx="15.29" cy="252.86" rx="4.84" ry="4.83"/><ellipse class="cls-1" cx="5.52" cy="243.09" rx="4.84" ry="4.83"/><ellipse class="cls-1" cx="15.29" cy="233.72" rx="4.84" ry="4.83"/><ellipse class="cls-1" cx="5.52" cy="223.95" rx="4.84" ry="4.83"/><circle class="cls-1" cx="5.61" cy="204.51" r="3.87"/><circle class="cls-1" cx="5.61" cy="185.08" r="3.39"/><circle class="cls-1" cx="5.71" cy="165.64" r="3.39"/><circle class="cls-1" cx="15.29" cy="156.16" r="2.9"/><circle class="cls-1" cx="5.61" cy="146.5" r="2.9"/><circle class="cls-1" cx="5.61" cy="127.16" r="2.42"/><circle class="cls-1" cx="5.61" cy="107.82" r="2.42"/><circle class="cls-1" cx="5.61" cy="88.48" r="2.42"/><circle class="cls-1" cx="5.61" cy="69.14" r="2.42"/><circle class="cls-1" cx="5.61" cy="49.8" r="1.93"/><circle class="cls-1" cx="15.77" cy="40.13" r="1.93"/><circle class="cls-1" cx="5.61" cy="30.46" r="1.45"/><circle class="cls-1" cx="15.29" cy="1.45" r="1.45"/><circle class="cls-1" cx="15.29" cy="20.79" r="1.45"/><circle class="cls-1" cx="5.61" cy="11.12" r="1.45"/><circle class="cls-1" cx="15.29" cy="59.47" r="1.93"/><circle class="cls-1" cx="15.29" cy="78.81" r="2.42"/><circle class="cls-1" cx="15.29" cy="98.15" r="2.42"/><circle class="cls-1" cx="15.29" cy="117.49" r="2.42"/><circle class="cls-1" cx="15.29" cy="136.83" r="2.42"/><circle class="cls-1" cx="15.48" cy="175.41" r="3.39"/><circle class="cls-1" cx="15.29" cy="195.33" r="3.87"/><circle class="cls-1" cx="15.77" cy="214.09" r="4.36"/></svg>