<?xml version="1.0" encoding="utf-8"?>
<!-- Generator: Adobe Illustrator 25.1.0, SVG Export Plug-In . SVG Version: 6.00 Build 0)  -->
<svg version="1.1" id="Gruppe_3223" xmlns="http://www.w3.org/2000/svg" xmlns:xlink="http://www.w3.org/1999/xlink" x="0px"
	 y="0px" viewBox="0 0 383.3 696" style="enable-background:new 0 0 383.3 696;" xml:space="preserve">
<style type="text/css">
	.st0{fill:#FFFFFF;}
</style>
<path id="Pfad_10535" class="st0" d="M382.6,167.1c1.1-11.2-0.8-22.5-5.6-32.7c-5.6-12-11.3-28.8-9.7-39.4s3.2-33.6-24.2-55.7
	S290.9-6.8,290,1.8s-3.2,25.9,15.3,52.8s30.6,35.5,42.7,52.8S377,171.9,382.6,167.1z"/>
<path id="Pfad_10536" class="st0" d="M269.1,94c0,0,11.3,1,16.9-2.9s17.7-3.8,16.1-5.8s-17.7-23.1-37-26.9s-33.8,2.9-40.3,3.8
	S209.5,70,220,72.9S257,94,269.1,94z"/>
<path id="Pfad_10537" class="st0" d="M365.1,297.7c-5.2-5.5-23.4-41.3-21.7-51.9s5.6-20.2,14.5-18.3s10.5,18.3,10.5,27.9
	s-0.8,24,0,31.7S372.3,305.4,365.1,297.7z"/>
<path id="Pfad_10538" class="st0" d="M325.6,267.9c3.1-5.9-3.2-9.6,0-17.3s4-25-0.8-33.6s-16.1-19.2-20.1-15.4
	c-4.5,4.8-7.5,10.8-8.9,17.3c-1.7,9.5,1,20.5,5.6,24C310.3,249.7,321.6,275.6,325.6,267.9z"/>
<path id="Pfad_10539" class="st0" d="M289.4,251.6c0,0-8.1-12.5-14.5-16.3s-22.5-21.1-18.5-29.8s14.5-11.5,20.9-7.7
	s7.2,11.5,6.4,16.3s0,16.3,5.6,21.1S294.2,258.3,289.4,251.6z"/>
<path id="Pfad_10540" class="st0" d="M258.8,249.7c6.4,3.8-4.8-11.5-8.1-16.3s-7.2-13.5-9.7-25.9s-13.7-18.3-23.4-11.5
	s-4.8,23.1,6.4,31.7s22.5,14.4,28.2,18.3"/>
<path id="Pfad_10541" class="st0" d="M212.9,250.6c0,0-25-10.6-33.8-15.4s-12.1-11.5,1.6-16.3s16.1,0,25,8.6
	c5.2,5.3,10.8,10.1,16.9,14.4C229,246.8,226.6,256.4,212.9,250.6z"/>
<path id="Pfad_10542" class="st0" d="M173.5,253.5c-0.8-4.7-5.6-8.6-10.5-11.5c-9-5.4-14-11.1-18.5-3.8c-4.3,6.9,1.6,10.6,7.2,14.4
	S174.3,258.3,173.5,253.5z"/>
<path id="Pfad_10543" class="st0" d="M382.3,368.1c0.9,0.8,2.2-0.2,2-1.5c-0.5-3.6-1.9-13.8-0.6-17c1.6-3.8,1.6-9.6-1.6-13.5
	s-8.9-8.6-10.5-4.8c-2.1,5-1.6,7.7-4,10.6c-1.8,2.2-2.4,4.8,2.4,8.6C373.7,353.6,379,365.4,382.3,368.1z"/>
<path id="Pfad_10544" class="st0" d="M353,332.3c0.8,0.9,5.6,4.8,8.1,0s3.2-11.5,0.8-15.4s-14.5-16.3-17.7-19.2s-12.9-8.6-21.7-13.5
	c-7.9-4.3-12.8-8.6-25.8-10.6c-6.4-1-4.8,8.6-4,12.5s0.8,8.6,7.2,10.6S330.5,306.4,353,332.3z"/>
<path id="Pfad_10545" class="st0" d="M343.4,375.3c3.6-0.5,7.2-0.2,10.6,1c4.9,1.7,8.9-0.3,11.2,2.7c2,2.7-4.1,7.3-5.6,8.6
	c-2.4,2.1-4.5,4-7.3,4.3c-5.3,0.5-5.5-0.3-8.4-1s-5.9-4.6-6.4-6c-0.2-0.6-1.2-3-0.3-4.9C338.6,377.6,340.9,375.9,343.4,375.3z"/>
<path id="Pfad_10546" class="st0" d="M313,367.5c2.8-0.4,4.8-2.4,9.3-8.3s8.2-8.3,12.5-9.5s10.5-3,10.6-7.1s-2.3-4-4.7-3.8
	s-7.2-0.5-10.6-0.6s-13,0.2-15.7,0.5c-13,1.3-14.4,7.1-15.3,11.6c-0.5,2.3,0.7,8.9,3.7,12.7C305.9,366.7,310.8,367.8,313,367.5z"/>
<path id="Pfad_10547" class="st0" d="M290.9,335c3.9-5.7,13.4-18.2,11.3-20.3s-8.6,0.6-14.8,5.2s-11.3,6.7-14,8.4s-9.6,5.7-7,13.3
	c1.4,4.2,7.5,5.4,13.3,3C284.6,342.7,289.2,337.6,290.9,335z"/>
<path id="Pfad_10548" class="st0" d="M247.3,329.9c5.5-10.8,4.4-16.8,11.8-20.8c4.4-2.4,15.7-8.1,11.8-10c-4.9-1.2-9.9-1.2-14.8,0
	c-7.1,1.9-13.8,7.2-15.7,8.6c-2.7,1.9-13.3,12.9-6.4,26.3C236.6,338.9,244.7,335,247.3,329.9z"/>
<path id="Pfad_10549" class="st0" d="M203,327.5c-2.1-0.5-2.5-4.2-0.9-7.8c2-4.4,2.4-6.8,5.6-10.8c3.1-3.9,7.2-6.8,12-8.3
	c4.4-1.3,4.8-0.3,4.1,2.1c-0.7,2.4-6.5,5.4-8.1,11.9c-0.9,3.8-0.4,11.6-3.9,12.1S203,327.5,203,327.5z"/>
<path id="Pfad_10550" class="st0" d="M177.9,321.5c4.4-6,12.2-17.9,11.3-18.9s-6.7,1.4-10.4,2.9s-13,4.3-14.8,12.1
	c-0.6,2.9-0.3,8.2,1.9,9.4C169.5,328.8,175.6,324.6,177.9,321.5z"/>
<path id="Pfad_10551" class="st0" d="M261.1,284c4.5,1.6,11,6,17.4,1c6.4-5.1,6.9-13.2-0.9-17.3c-7.9-4.1-28.2-4-34.2-3.7
	c-6,0.3-33.8,1.4-37.5,6.7c0,0-6.4,9.4,4.9,9.7c11.3,0.3,27.9-0.8,34.8-0.3C252.6,280.6,261.1,284,261.1,284z"/>
<path id="Pfad_10552" class="st0" d="M144.4,285.7c-0.1-2.5,4.4-4.1,9-5.7s7.4-3.7,9.5-4.4c2.9-0.9,6-1.4,9-1.4
	c3.8,0.1,15.4-0.2,17.6-0.2s5.4,0.1,5.7,4.1c0.3,4-0.7,6.3-5.4,6.6c-4.7,0.2-15.9,0.4-19.7,0.3s-12.4-0.5-16.9,1.5
	S144.5,288.1,144.4,285.7z"/>
<path id="Pfad_10553" class="st0" d="M150.8,309.2c-1.1-1.2-3.5-4.3-1.8-5.4c1-0.8,2-1.4,3.2-1.9c1.1-0.2,2.2-0.2,3.3,0.1
	c0.8,0.1,1.5,2.7,1.4,5.4c0,1.1-0.5,6-1.5,6.2C154.1,313.9,152.1,310.7,150.8,309.2z"/>
<path id="Pfad_10554" class="st0" d="M150,321.8c0.9-3.2,0.4-5.5-1.9-6.2c-1.6-0.5-3-1.4-4.2-2.5c-0.6-0.7-3.2-3-5.1-0.4
	s-2.7,5.1-1.8,7c1.2,2.1,2.4,4.2,3.8,6.1c0.6,0.8,1.8,3.3,3.3,3.9c1.8,0.8,4-0.4,4.8-1.5C149.8,326.9,149.3,324.3,150,321.8z"/>
<path id="Pfad_10555" class="st0" d="M126.7,315.2c-0.3-1.7-0.9-3.8-3.2-2.7c-1.1,0.5-2.1,2.7-3.5,7.3c-1.3,4.5-1.8-0.3-1.3-1.8
	s0.3-4.1-1.3-3.8s-4.5,3.7-5.7,6.7s-5.3,11-3.8,15.2c0.8,2.1,5.2,2.7,7.5-0.4c1.1-1.5,3.9-5.7,6.6-9.9
	C125.1,321,126.9,316.2,126.7,315.2z"/>
<path id="Pfad_10556" class="st0" d="M100.2,314.2c1.4-2.2,2.4-3.6,3.9-3.9s1.7-4-1-4.4s-6.5,0.1-7.7,1.6s-3.5,4.3-1.4,7.3
	C96.2,317.7,99.3,315.6,100.2,314.2z"/>
<path id="Pfad_10557" class="st0" d="M133.9,292.7c-1.4-0.4-5.3-0.2-5.1,2.6c0.3,3.2,2.2,3,4.5,2.3
	C135.7,297.1,138.8,294,133.9,292.7z"/>
<path id="Pfad_10558" class="st0" d="M108.9,289.7c2.2-0.7,4.4-1.6,6.5-2.7c1.9-1.2,2.3-4.9,0.7-6.6c-1.6-1.7-5.8-2.7-7.1-3.5
	c-2.3-0.9-4.7-1.4-7.2-1.4c-1.6,0.1-3.2,0.2-4.8,0.4c-1.3,0.2-5.9-0.4-5.9,4.2c0.1,4.7,4.7,5.2,6.1,5.9
	C99.8,287.3,103.8,291.3,108.9,289.7z"/>
<path id="Pfad_10559" class="st0" d="M120.1,265.4c-1.8-2.1-4.1-6.4-0.4-9.9s9.4-0.8,12.5,0.6s13,9.7,11.8,12.2s-8.1,3.4-12,3.3
	S123.2,268.9,120.1,265.4z"/>
<path id="Pfad_10560" class="st0" d="M72.2,428.3c-7.8,3-12.9,11.2-16.7,21.4c0,0-1.1,1.1-1.8-0.8s-2.4-18.2-0.8-28.3
	s13.3-12.6,17.3-11.2c4.2,1.5,9.4,9,11,14.4c1,3.3,0.7,6.8-1.1,5.5C80.2,429.2,76.2,426.8,72.2,428.3z"/>
<path id="Pfad_10561" class="st0" d="M40.2,438.2c0,0-1.8-11.4,1.4-16.5s5.7-10.2,3-14.2s19.1-10.4,13.6-9.3s-38.4,5.7-37.9,15.7
	c0.5,8.9,3.9,12.7,8.9,18.4S39.2,443.2,40.2,438.2z"/>
<path id="Pfad_10562" class="st0" d="M43.1,465.7c-1.5-3.5,0.6-6.7,1.5-8.3s3.4-2.9,4.4-0.5s7.3,17.7,11.1,26.6
	c2.8,6.5,8.5,15.4,4.6,12.8s-8.1-10.2-12.6-16.9S43.1,465.7,43.1,465.7z"/>
<path id="Pfad_10563" class="st0" d="M20.4,477.9c0.3-4.2-7.8-15.2,0-18.2s11-1.9,11.5-4.2s-0.2-6.6-6.7-9.5s-12.6-4.9-18.3-0.8
	s-7.4,11.6-6.7,16.5s8.9,12.3,12.9,15.7S20.2,480.2,20.4,477.9z"/>
<path id="Pfad_10564" class="st0" d="M177.4,607.1c-7.2-7.9-7.4-11.7-12.5-19.4s-14.4-27.3-14.6-38.7c-0.3-11.4-1.3-17.1-0.3-17.8
	c1.1-0.6,10.1,6,17.6,13.3s13,23.1,13.3,47.6C181.2,612.8,177.4,607.1,177.4,607.1z"/>
<path id="Pfad_10565" class="st0" d="M205.9,628.7c-1.3,1-3,0.2-3.3-1.6c-1.4-7.1-4-23.7-0.9-32.7c2.4-7.2,7.3-15.7,10.8-21.3
	c1.7-2.7,5.1-5.4,6-2.2C222,583.5,226.4,613.4,205.9,628.7z"/>
<path id="Pfad_10566" class="st0" d="M178.1,632c-1.2,0.7-3.2,2.8,0.1,5.7s12.3,13.6,13.5,13.6s4.4-2.1,0.3-6.8
	S179.3,631.3,178.1,632z"/>
<path id="Pfad_10567" class="st0" d="M163.9,619.8c0,0-14.6,2.5-39.9-5.7c-25.3-8.2-31.1-20.9-30.8-22.5s13.6-7,29-4.1
	c15.4,2.9,31.5,14.8,39.9,24.7C168.1,619.4,163.4,620.1,163.9,619.8z"/>
<path id="Pfad_10568" class="st0" d="M121.3,650.9c4.7-0.8,16.5-2.2,18.4-3.8s1.6-8.9-12.8-11.1s-30.1-0.6-38.8,1.3
	s-13.3,3.8-6.7,7.6S93.4,655.6,121.3,650.9z"/>
<path id="Pfad_10569" class="st0" d="M117.3,694.6c0.2-3.6,6.7-11.7,14.4-18.7s15.7-16.2,19.1-18.1s10.1-8.9,11.4-2.9
	s-3.5,16.5-4.8,20s-5.9,8.3-12,11.7C137.6,691.2,117.1,699.1,117.3,694.6z"/>
<path id="Pfad_10570" class="st0" d="M305.9,548.7c-2.7,4.4-8.2,16.2-10.9,22.2s-9.3,18.7-9.6,21.9c-0.2,2.9,1.5,4.2,3.5,2.8
	c0.4-0.3,0.8-0.7,1.1-1.2l25.2-38.3c1.6-2.4,0.9-6-1.4-7.3C311,547.2,307.5,546,305.9,548.7z"/>
<path id="Pfad_10571" class="st0" d="M322.6,569.3c0,0-0.3-5.4,3.2-5.7c3.5-0.3,11.2-0.5,16.2,0.6c8.5,1.9,24.2,6.7,23.7,23.2
	c0,0,0.8,7.3-5.6,14c-6.2,6.5-14.6,10.8-17.3,9.2c-1.3-0.8-4.1-5.7-0.3-9.8c3.2-3.5,1.6-12.4-4.3-17.5
	C331.6,577.4,323.7,571.5,322.6,569.3z"/>
<path id="Pfad_10572" class="st0" d="M337.3,542c-4.1,0-5.1-5.4,3.7-12.4s19.7-14.6,28.7-14.9s14.1,5.7,13.6,12.4s-3.2,9.5-6.4,17.1
	s-6.5,16.3-12.5,9.8c-5.6-6-6.4-10.5-12.8-12.4C347.2,540.4,341.8,542,337.3,542z"/>
<path id="Pfad_10573" class="st0" d="M320,528.4c-3.6-2.7,1.1-24.1-6.9-24.7s-18.4,3.2-18.4-1.9s1.9-17.1,16.5-23.8
	s22.3,3.5,23.9,10.8s0.5,19.4-3.7,27C327.2,523.3,322.1,530,320,528.4z"/>
</svg>
