<svg id="Layer_1" data-name="Layer 1" xmlns="http://www.w3.org/2000/svg" viewBox="0 0 25 25">
    <g id="ICN_Search" data-name="ICN Search">
        <path d="M45,51.14a1,1,0,0,1-.87-.5h0l-4.57-8.1A8.46,8.46,0,0,1,29.4,38.77a7.84,7.84,0,0,1-.63-6.14,8.09,8.09,0,0,1,4-4.75A8.41,8.41,0,0,1,44,31.17a7.85,7.85,0,0,1,.63,6.14,8.11,8.11,0,0,1-3.29,4.32l4.52,8A1,1,0,0,1,45.49,51,1,1,0,0,1,45,51.14ZM36.71,28.92a6.36,6.36,0,0,0-3,.73,6.08,6.08,0,0,0-3.06,3.58,5.81,5.81,0,0,0,.46,4.56,6.44,6.44,0,0,0,8.4,2.57l.16-.08a6.05,6.05,0,0,0,3-3.57,5.78,5.78,0,0,0-.46-4.55A6.39,6.39,0,0,0,36.71,28.92Z" transform="translate(-28.42 -26.92)" fill="currentColor" />
    </g>
</svg>