<svg xmlns="http://www.w3.org/2000/svg" xmlns:xlink="http://www.w3.org/1999/xlink" viewBox="0 0 75 58"><defs><style>.cls-1{fill:none;}.cls-2{fill:#311d2d;}.cls-3{clip-path:url(#clip-path);}.cls-4{fill:#4c3433;}</style><clipPath id="clip-path"><rect class="cls-1" width="75" height="58"/></clipPath></defs><g id="Ebene_3" data-name="Ebene 3"><rect class="cls-2" width="75" height="58"/></g><g id="Ebene_2" data-name="Ebene 2"><g class="cls-3"><g id="Ebene_10" data-name="Ebene 10"><path class="cls-4" d="M36.26,23.86c-1-2.06-1.67-3.61-2.11-4.67a2.84,2.84,0,0,1,.91-2.28,3.64,3.64,0,0,1,2.44-.62v-.81a4.51,4.51,0,0,0-3,.82,3.05,3.05,0,0,0-1,1.4c-.08-.2-.12-.32-.12-.32-.13-.38-.23-.64-.31-.89-.23-.64-.42-1.15-1.09-3.39-1.08-3.76,1-5.21,2.33-5.6a9.53,9.53,0,0,1,3.19-.28v-.8a9.83,9.83,0,0,0-3.58.36c-1.27.46-4.07,2-2.7,6.54.3,1,.5,1.62.65,2.1l-1-1.95c-2.24-4.17-5.31-3.29-6.53-2.71A9.86,9.86,0,0,0,21.53,13a9.87,9.87,0,0,0-2.27,2.79C18.68,17,17.8,20.11,22,22.35l2,1-2.1-.65c-4.54-1.37-6.08,1.43-6.54,2.7a9.74,9.74,0,0,0-.44,3.6h.8A9.53,9.53,0,0,1,16,25.81c.39-1.33,1.84-3.41,5.6-2.27,2.24.67,2.75.86,3.39,1.09l.89.31.32.12a3.05,3.05,0,0,0-1.4,1A4.53,4.53,0,0,0,24,29h.81a3.64,3.64,0,0,1,.62-2.44,2.84,2.84,0,0,1,2.28-.91c1.06.44,2.61,1.12,4.67,2.11A5.23,5.23,0,0,0,32.2,29h1a4.32,4.32,0,0,1,4.3-4.3v-1A5.77,5.77,0,0,0,36.26,23.86ZM20,16.05a9.68,9.68,0,0,1,2.1-2.45,9.7,9.7,0,0,1,2.45-2.06c1.22-.66,3.72-1.11,5.57,2.35,1.1,2.06,1.34,2.55,1.63,3.17l.4.85a1.77,1.77,0,0,1,.15.31,3.22,3.22,0,0,0-1.67-.31,4.54,4.54,0,0,0-2.69,1.53,4.54,4.54,0,0,0-1.53,2.69,3.22,3.22,0,0,0,.31,1.67,1.77,1.77,0,0,1-.31-.15l-.85-.4c-.62-.29-1.11-.53-3.17-1.63C18.93,19.77,19.38,17.27,20,16.05Zm13,10.2c-2.17-.76-3.74-1.38-4.81-1.82a2.83,2.83,0,0,1-1-2.25A3.61,3.61,0,0,1,28.51,20a3.64,3.64,0,0,1,2.17-1.28,2.83,2.83,0,0,1,2.25,1c.44,1.07,1.06,2.64,1.82,4.81A5,5,0,0,0,33,26.25Z"/><path class="cls-4" d="M42.64,27.76c2.06-1,3.61-1.67,4.67-2.11a2.84,2.84,0,0,1,2.28.91A3.64,3.64,0,0,1,50.21,29H51a4.51,4.51,0,0,0-.82-3,3.05,3.05,0,0,0-1.4-1l.32-.12.89-.31c.64-.23,1.15-.42,3.39-1.09,3.76-1.14,5.21.94,5.6,2.27a9.39,9.39,0,0,1,.3,3.25h.8a9.83,9.83,0,0,0-.36-3.58c-.46-1.27-2-4.07-6.54-2.7l-2.1.65,2-1c4.17-2.24,3.29-5.31,2.71-6.53A10,10,0,0,0,53.47,13a9.87,9.87,0,0,0-2.79-2.27c-1.22-.58-4.29-1.46-6.53,2.71-.48.9-.79,1.5-1,2,.15-.48.35-1.12.65-2.1,1.37-4.54-1.43-6.08-2.7-6.54a9.83,9.83,0,0,0-3.58-.36v.8a9.53,9.53,0,0,1,3.19.28C42,7.89,44.1,9.34,43,13.1c-.67,2.24-.86,2.75-1.09,3.39-.08.25-.18.51-.31.89a.7.7,0,0,1-.12.32,3.05,3.05,0,0,0-1-1.4,4.51,4.51,0,0,0-3-.82v.81a3.64,3.64,0,0,1,2.44.62,2.84,2.84,0,0,1,.91,2.28c-.44,1.06-1.12,2.61-2.11,4.67a5.77,5.77,0,0,0-1.24-.16v1A4.31,4.31,0,0,1,41.8,29h1A5.77,5.77,0,0,0,42.64,27.76Zm7.81-16.22A9.7,9.7,0,0,1,52.9,13.6,9.68,9.68,0,0,1,55,16.05c.66,1.22,1.11,3.72-2.35,5.57-2.06,1.1-2.55,1.34-3.17,1.63l-.85.4a1.77,1.77,0,0,1-.31.15,3.22,3.22,0,0,0,.31-1.67,4.54,4.54,0,0,0-1.53-2.69,4.54,4.54,0,0,0-2.69-1.53,3.22,3.22,0,0,0-1.67.31,1.77,1.77,0,0,1,.15-.31l.4-.85c.29-.62.53-1.11,1.63-3.17C46.73,10.43,49.23,10.88,50.45,11.54Zm-10.2,13c.76-2.17,1.38-3.74,1.82-4.81a2.83,2.83,0,0,1,2.25-1A3.62,3.62,0,0,1,46.49,20a3.64,3.64,0,0,1,1.28,2.17,2.83,2.83,0,0,1-1,2.25c-1.07.44-2.64,1.06-4.81,1.82a5.08,5.08,0,0,0-1.71-1.74Z"/><path class="cls-4" d="M69.86,1.24c-2.06,1-3.61,1.67-4.67,2.11a2.84,2.84,0,0,1-2.28-.91A3.64,3.64,0,0,1,62.29,0h-.81a4.51,4.51,0,0,0,.82,3,3.05,3.05,0,0,0,1.4,1l-.32.12-.89.31c-.64.23-1.15.42-3.39,1.09-3.76,1.14-5.21-.94-5.6-2.27A9.62,9.62,0,0,1,53.22,0h-.8a9.83,9.83,0,0,0,.36,3.58c.46,1.27,2,4.07,6.54,2.7l2.1-.65-2,1C55.3,8.89,56.18,12,56.76,13.18A9.9,9.9,0,0,0,59,16a9.87,9.87,0,0,0,2.79,2.27c1.22.58,4.29,1.46,6.53-2.71.48-.9.79-1.5,1-2-.15.48-.35,1.12-.65,2.1-1.37,4.54,1.43,6.08,2.7,6.54a9.83,9.83,0,0,0,3.58.36v-.8a9.53,9.53,0,0,1-3.19-.28c-1.33-.39-3.41-1.84-2.27-5.6.67-2.24.86-2.75,1.09-3.39.08-.25.18-.51.31-.89a.7.7,0,0,1,.12-.32,3.05,3.05,0,0,0,1,1.4,4.51,4.51,0,0,0,3,.82v-.81a3.64,3.64,0,0,1-2.44-.62,2.84,2.84,0,0,1-.91-2.28c.44-1.06,1.12-2.61,2.11-4.67A5.65,5.65,0,0,0,75,5.3v-1A4.32,4.32,0,0,1,70.7,0h-1A5.77,5.77,0,0,0,69.86,1.24ZM62.05,17.46A9.7,9.7,0,0,1,59.6,15.4,9.67,9.67,0,0,1,57.54,13c-.66-1.22-1.11-3.72,2.35-5.57C62,6.28,62.44,6,63.06,5.75l.85-.4.31-.15a3.22,3.22,0,0,0-.31,1.67,4.54,4.54,0,0,0,1.53,2.69,4.54,4.54,0,0,0,2.69,1.53,3.22,3.22,0,0,0,1.67-.31,1.77,1.77,0,0,1-.15.31l-.4.85c-.29.62-.53,1.11-1.63,3.17C65.77,18.57,63.27,18.12,62.05,17.46Zm10.2-13c-.76,2.17-1.38,3.74-1.82,4.81a2.83,2.83,0,0,1-2.25,1A3.62,3.62,0,0,1,66,9a3.64,3.64,0,0,1-1.28-2.17,2.83,2.83,0,0,1,1-2.25c1.07-.44,2.64-1.06,4.81-1.82A5,5,0,0,0,72.25,4.5Z"/><path class="cls-4" d="M1.24,5.14c1,2.06,1.67,3.61,2.11,4.67a2.84,2.84,0,0,1-.91,2.28A3.64,3.64,0,0,1,0,12.71v.81a4.51,4.51,0,0,0,3-.82,3.05,3.05,0,0,0,1-1.4c.08.2.12.32.12.32.13.38.23.64.31.89.23.64.42,1.15,1.09,3.39,1.14,3.76-.94,5.21-2.27,5.6A9.62,9.62,0,0,1,0,21.78v.8a9.83,9.83,0,0,0,3.58-.36c1.27-.46,4.07-2,2.7-6.54-.3-1-.5-1.62-.65-2.1l1,1.95c2.24,4.17,5.31,3.29,6.53,2.71A9.65,9.65,0,0,0,16,16a9.87,9.87,0,0,0,2.27-2.79c.58-1.22,1.46-4.29-2.71-6.53l-2-1,2.1.65c4.54,1.37,6.08-1.43,6.54-2.7A9.68,9.68,0,0,0,22.58,0h-.8a9.53,9.53,0,0,1-.28,3.19c-.39,1.33-1.84,3.41-5.6,2.27-2.24-.67-2.75-.86-3.39-1.09l-.89-.31-.32-.12a3.05,3.05,0,0,0,1.4-1,4.51,4.51,0,0,0,.82-3h-.81a3.64,3.64,0,0,1-.62,2.44,2.84,2.84,0,0,1-2.28.91c-1.06-.38-2.61-1.06-4.67-2A5.77,5.77,0,0,0,5.3,0h-1A4.32,4.32,0,0,1,0,4.3v1A5.77,5.77,0,0,0,1.24,5.14ZM17.46,13a9.67,9.67,0,0,1-2.06,2.4A9.67,9.67,0,0,1,13,17.46c-1.22.66-3.72,1.11-5.57-2.35a31.06,31.06,0,0,1-1.68-3.17l-.4-.85a1.77,1.77,0,0,1-.15-.31,3.22,3.22,0,0,0,1.67.31A4.54,4.54,0,0,0,9.56,9.56a4.54,4.54,0,0,0,1.53-2.69,3.22,3.22,0,0,0-.31-1.67l.31.15.85.4c.62.29,1.11.53,3.17,1.63C18.57,9.23,18.12,11.73,17.46,13ZM4.5,2.75c2.17.76,3.74,1.38,4.81,1.82a2.83,2.83,0,0,1,1,2.25A3.6,3.6,0,0,1,9,9a3.64,3.64,0,0,1-2.17,1.28,2.83,2.83,0,0,1-2.25-1c-.45-1-1.07-2.61-1.83-4.78A5.06,5.06,0,0,0,4.5,2.75Z"/><path class="cls-4" d="M5.14,57c2.06-1,3.61-1.67,4.67-2.11a2.81,2.81,0,0,1,2.28.91,3.64,3.64,0,0,1,.62,2.44h.81a4.51,4.51,0,0,0-.82-3,3.18,3.18,0,0,0-1.4-1l.32-.11.89-.32c.64-.23,1.15-.41,3.39-1.09,3.76-1.13,5.21,1,5.6,2.28a9.53,9.53,0,0,1,.28,3.19h.8a9.83,9.83,0,0,0-.36-3.58c-.46-1.27-2-4.07-6.54-2.7l-2.1.65,1.95-1c4.17-2.24,3.29-5.31,2.71-6.53A9.73,9.73,0,0,0,16,42.25,9.76,9.76,0,0,0,13.18,40c-1.18-.6-4.29-1.49-6.53,2.69-.48.9-.79,1.5-1,1.94.15-.47.35-1.12.65-2.09C7.65,38,4.85,36.45,3.58,36A9.83,9.83,0,0,0,0,35.64v.8a9.53,9.53,0,0,1,3.19.28c1.33.39,3.41,1.84,2.27,5.6-.67,2.24-.86,2.75-1.09,3.39-.08.24-.18.51-.31.88a2.19,2.19,0,0,1-.12.33,3.05,3.05,0,0,0-1-1.4,4.4,4.4,0,0,0-3-.82v.8a3.7,3.7,0,0,1,2.44.63,2.84,2.84,0,0,1,.91,2.28c-.38,1.06-1.06,2.59-2,4.67A5.21,5.21,0,0,0,0,52.92v1a4.32,4.32,0,0,1,4.3,4.3h1A5.59,5.59,0,0,0,5.14,57ZM13,40.76a9.7,9.7,0,0,1,2.45,2.06,9.7,9.7,0,0,1,2.06,2.45c.66,1.22,1.11,3.71-2.35,5.57-2.06,1.1-2.55,1.33-3.17,1.63-.24.11-.49.22-.85.4l-.31.15a3.24,3.24,0,0,0,.31-1.68,4.43,4.43,0,0,0-1.53-2.68,4.54,4.54,0,0,0-2.69-1.53,3,3,0,0,0-1.67.31,1.77,1.77,0,0,1,.15-.31l.4-.85c.29-.62.53-1.11,1.63-3.17C9.23,39.65,11.73,40.1,13,40.76Zm-10.2,13C3.56,51.6,4.18,50,4.62,49a2.83,2.83,0,0,1,2.25-1A3.62,3.62,0,0,1,9,49.23a3.58,3.58,0,0,1,1.28,2.16,2.83,2.83,0,0,1-1,2.26c-1.07.44-2.64,1.05-4.81,1.81a5.33,5.33,0,0,0-1.72-1.75Z"/><path class="cls-4" d="M73.76,53.08c-1-2.06-1.67-3.61-2.11-4.67a2.84,2.84,0,0,1,.91-2.28A3.7,3.7,0,0,1,75,45.5v-.8a4.4,4.4,0,0,0-3,.82,3.05,3.05,0,0,0-1,1.4,2.19,2.19,0,0,1-.12-.33c-.13-.37-.23-.64-.31-.88-.23-.64-.42-1.15-1.09-3.39-1.14-3.76.94-5.21,2.27-5.6A9.62,9.62,0,0,1,75,36.44v-.8a9.83,9.83,0,0,0-3.58.36c-1.27.45-4.07,2-2.7,6.54.3,1,.5,1.62.65,2.09-.23-.44-.54-1-1-1.94C66.11,38.51,63,39.4,61.82,40A9.76,9.76,0,0,0,59,42.25,9.74,9.74,0,0,0,56.76,45c-.58,1.22-1.46,4.29,2.71,6.53l2,1-2.1-.65c-4.54-1.37-6.08,1.43-6.54,2.7a9.83,9.83,0,0,0-.36,3.58h.8A9.59,9.59,0,0,1,53.5,55c.39-1.33,1.84-3.41,5.6-2.28,2.24.68,2.75.86,3.39,1.09l.89.32.32.11a3.18,3.18,0,0,0-1.4,1,4.51,4.51,0,0,0-.82,3h.81a3.64,3.64,0,0,1,.62-2.44,2.88,2.88,0,0,1,2.28-.92c1.06.45,2.61,1.13,4.67,2.12a5.77,5.77,0,0,0-.16,1.24h1a4.32,4.32,0,0,1,4.3-4.3v-1A5.18,5.18,0,0,0,73.76,53.08ZM57.54,45.27a9.7,9.7,0,0,1,2.06-2.45,9.7,9.7,0,0,1,2.45-2.06c1.22-.66,3.72-1.11,5.57,2.35,1.1,2.06,1.34,2.55,1.63,3.17l.4.85a1.77,1.77,0,0,1,.15.31,3,3,0,0,0-1.67-.31,5.85,5.85,0,0,0-4.22,4.21A3.18,3.18,0,0,0,64.22,53l-.31-.15c-.36-.18-.61-.29-.85-.4-.62-.3-1.11-.53-3.17-1.63C56.43,49,56.88,46.49,57.54,45.27Zm13,10.19c-2.17-.76-3.74-1.37-4.81-1.81a2.83,2.83,0,0,1-1-2.26A5.06,5.06,0,0,1,68.18,48a2.83,2.83,0,0,1,2.25,1c.44,1.07,1.06,2.64,1.82,4.8a5.34,5.34,0,0,0-1.75,1.66Z"/><path class="cls-4" d="M38.74,34.14c1,2.06,1.67,3.61,2.11,4.67a2.84,2.84,0,0,1-.91,2.28,3.64,3.64,0,0,1-2.44.62v.81a4.51,4.51,0,0,0,3-.82,3.05,3.05,0,0,0,1-1.4c.08.2.12.32.12.32.13.38.23.64.31.89.23.64.42,1.15,1.09,3.39,1.14,3.76-.94,5.21-2.27,5.6a9.53,9.53,0,0,1-3.19.28v.8a9.83,9.83,0,0,0,3.58-.36c1.27-.46,4.07-2,2.7-6.54-.3-1-.5-1.62-.65-2.1.23.45.54,1.05,1,2,2.24,4.17,5.31,3.29,6.53,2.71A9.77,9.77,0,0,0,53.47,45a9.87,9.87,0,0,0,2.27-2.79C56.32,41,57.2,37.89,53,35.65l-2-1,2.1.65c4.54,1.37,6.08-1.43,6.54-2.7a9.74,9.74,0,0,0,.44-3.6h-.8A9.53,9.53,0,0,1,59,32.19c-.39,1.33-1.84,3.41-5.6,2.27-2.24-.67-2.75-.86-3.39-1.09l-.89-.31-.32-.12a3.05,3.05,0,0,0,1.4-1A4.53,4.53,0,0,0,51,29h-.81a3.64,3.64,0,0,1-.62,2.44,2.84,2.84,0,0,1-2.28.91c-1.06-.44-2.61-1.12-4.67-2.11A5.23,5.23,0,0,0,42.8,29h-1a4.32,4.32,0,0,1-4.3,4.3v1A5.77,5.77,0,0,0,38.74,34.14ZM55,42a9.63,9.63,0,0,1-2.1,2.4,9.7,9.7,0,0,1-2.45,2.06c-1.22.66-3.72,1.11-5.57-2.35-1.1-2.06-1.34-2.55-1.63-3.17l-.4-.85a1.77,1.77,0,0,1-.15-.31,3.22,3.22,0,0,0,1.67.31,4.54,4.54,0,0,0,2.69-1.53,4.54,4.54,0,0,0,1.53-2.69,3.22,3.22,0,0,0-.31-1.67l.31.15.85.4c.62.29,1.11.53,3.17,1.63C56.07,38.23,55.62,40.73,55,42ZM42,31.75c2.17.76,3.74,1.38,4.81,1.82a2.83,2.83,0,0,1,1,2.25A3.61,3.61,0,0,1,46.49,38a3.64,3.64,0,0,1-2.17,1.28,2.83,2.83,0,0,1-2.25-1c-.44-1.07-1.06-2.64-1.82-4.81A5,5,0,0,0,42,31.75Z"/><path class="cls-4" d="M32.36,30.24c-2.06,1-3.61,1.67-4.67,2.11a2.84,2.84,0,0,1-2.28-.91A3.64,3.64,0,0,1,24.79,29H24a4.51,4.51,0,0,0,.82,3,3.05,3.05,0,0,0,1.4,1l-.32.12-.89.31c-.64.23-1.15.42-3.39,1.09-3.76,1.14-5.21-.94-5.6-2.27a9.39,9.39,0,0,1-.3-3.25h-.8a9.83,9.83,0,0,0,.36,3.58c.46,1.27,2,4.07,6.54,2.7l2.1-.65-2,1c-4.17,2.24-3.29,5.31-2.71,6.53A10,10,0,0,0,21.53,45a9.87,9.87,0,0,0,2.79,2.27c1.22.58,4.29,1.46,6.53-2.71.48-.9.79-1.5,1-2-.15.48-.35,1.12-.65,2.1-1.37,4.54,1.43,6.08,2.7,6.54a9.83,9.83,0,0,0,3.58.36v-.8a9.53,9.53,0,0,1-3.19-.28C33,50.11,30.9,48.66,32,44.9c.67-2.24.86-2.75,1.09-3.39.08-.25.18-.51.31-.89a.7.7,0,0,1,.12-.32,3.05,3.05,0,0,0,1,1.4,4.51,4.51,0,0,0,3,.82v-.81a3.64,3.64,0,0,1-2.44-.62,2.84,2.84,0,0,1-.91-2.28c.44-1.06,1.12-2.61,2.11-4.67a5.77,5.77,0,0,0,1.24.16v-1A4.31,4.31,0,0,1,33.2,29h-1A5.77,5.77,0,0,0,32.36,30.24ZM24.55,46.46A9.7,9.7,0,0,1,22.1,44.4,9.63,9.63,0,0,1,20,42c-.66-1.22-1.11-3.72,2.35-5.57,2.06-1.1,2.55-1.34,3.17-1.63l.85-.4.31-.15a3.22,3.22,0,0,0-.31,1.67,4.54,4.54,0,0,0,1.53,2.69,4.54,4.54,0,0,0,2.69,1.53,3.22,3.22,0,0,0,1.67-.31,1.77,1.77,0,0,1-.15.31l-.4.85c-.29.62-.53,1.11-1.63,3.17C28.27,47.57,25.77,47.12,24.55,46.46Zm10.2-13c-.76,2.17-1.38,3.74-1.82,4.81a2.83,2.83,0,0,1-2.25,1A3.62,3.62,0,0,1,28.51,38a3.64,3.64,0,0,1-1.28-2.17,2.83,2.83,0,0,1,1-2.25c1.07-.44,2.64-1.06,4.81-1.82a5.08,5.08,0,0,0,1.71,1.74Z"/></g></g></g></svg>