<svg id="Gruppe_3222" data-name="Gruppe 3222" xmlns="http://www.w3.org/2000/svg" width="458.354" height="590.12" viewBox="0 0 458.354 590.12">
  <path id="Pfad_10511" data-name="Pfad 10511" d="M19.708,546.143a4.266,4.266,0,0,1,1.675-4.41C27.438,537.89,44,527.1,50.524,520.1c4.678-5.015,16.1-22.1,20.13-22.1s10.468,5.765,7.247,16.333-12.078,21.136-16.909,24.979c-4.541,3.613-22.6,16.563-36.122,19.7a2.674,2.674,0,0,1-3.092-2.364Z" transform="translate(-8.181 -311.616)" fill="#f8f5f0"/>
  <path id="Pfad_10512" data-name="Pfad 10512" d="M33.612,514.719c2.818,1.441,8.857-2.882,17.715-18.254S61.794,475.329,61.794,468.6,57.768,459,53.742,459s-11.676-1.441-14.091,7.205S28.434,512.068,33.612,514.719Z" transform="translate(-10.595 -310.08)" fill="#f8f5f0"/>
  <path id="Pfad_10513" data-name="Pfad 10513" d="M90.655,560.875c-2.907-2.143-8.857-11.529-3.221-17.293s14.55-8.82,18.52-9.607c4.831-.961,7.247-.961,12.883.961s11.08,7.724,12.078,13.45c.829,4.775-.894,5.227-1.7,7.148s.4,8.253-3.132,10.146C122.131,567.8,107.564,573.364,90.655,560.875Z" transform="translate(-20.935 -313.003)" fill="#f8f5f0"/>
  <path id="Pfad_10514" data-name="Pfad 10514" d="M127.091,509.779s-7.247-6.725-1.61-11.529,11.039-8.1,14.494-10.568c4.026-2.882,11.273-10.568,21.741-6.725s5.636,17.293.805,20.176a67.5,67.5,0,0,1-16.1,6.725C140.892,509.5,131.117,513.622,127.091,509.779Z" transform="translate(-28.386 -310.905)" fill="#f8f5f0"/>
  <path id="Pfad_10515" data-name="Pfad 10515" d="M95.169,486.113c-2.52-.432-4.831-1.922-2.416-10.568s6.442-24.979,8.857-33.626,6.442-24.979,8.052-34.587,2.416-18.254,1.61-24.979c-.467-3.92-3.615-11.731-.805-14.411,4.026-3.843,10.468,0,12.883,13.45s3.068,36.47.805,49.958c-2.416,14.411-8.052,33.626-12.883,42.272C108.447,478.677,106.442,488.035,95.169,486.113Z" transform="translate(-22.23 -306.453)" fill="#f8f5f0"/>
  <path id="Pfad_10516" data-name="Pfad 10516" d="M147.733,460.626c-2.279-2.152-.805-8.647,2.416-13.45S164.643,427,170.279,427s8.052,5.765,6.442,12.49-2.416,8.647-8.857,13.45c-4.316,3.218-8.857,4.8-12.883,6.725C152.629,460.789,148.418,461.27,147.733,460.626Z" transform="translate(-32.924 -308.828)" fill="#f8f5f0"/>
  <path id="Pfad_10517" data-name="Pfad 10517" d="M151.858,412.255c-.765-.307-.805-3.843,0-8.647.789-4.708,2.222-20.685,4.026-24.979,2.416-5.764,8.857-10.568,14.494-8.647s7.247,14.411.805,23.058-9.663,7.686-12.078,11.529C156.286,409.046,154.273,413.216,151.858,412.255Z" transform="translate(-33.827 -306.572)" fill="#f8f5f0"/>
  <path id="Pfad_10518" data-name="Pfad 10518" d="M78.093,451.116c-3.7-1.893-.805-5.765-6.442-12.49s-12.883-16.333-13.689-23.058S59.574,405,64.4,405s10.468,2.882,16.1,9.608,1.61,20.175,1.61,23.058S83.73,454,78.093,451.116Z" transform="translate(-15.62 -307.964)" fill="#f8f5f0"/>
  <path id="Pfad_10519" data-name="Pfad 10519" d="M92.05,391.586c-4.115,1.633-7.972-.865-12.078-5.764-5.636-6.725-9.582-23.26-8.052-26.9,1.61-3.843,5.636-.961,9.663,0s9.663,4.8,10.468,15.372S94.466,390.625,92.05,391.586Z" transform="translate(-18.306 -306.079)" fill="#f8f5f0"/>
  <path id="Pfad_10520" data-name="Pfad 10520" d="M142.995,360.621c-2.754-1.1-4.026-5.764-4.026-9.607s-.805-15.372,1.61-17.293,8.052-7.686,11.273-6.725,5.636.961,6.442,3.843-.805,6.725-1.61,9.607-2.416,3.843-4.831,7.686S145.411,361.582,142.995,360.621Z" transform="translate(-31.405 -304.897)" fill="#f8f5f0"/>
  <path id="Pfad_10521" data-name="Pfad 10521" d="M108.191,339.067a23.7,23.7,0,0,0-10.468-7.686c-7.247-2.882-10.081-9.7-11.273-15.372-.805-3.843.805-10.568,4.026-11.529,3.986-1.191,8.728-.154,11.273,2.882,4.026,4.8,7.247,8.647,8.052,16.333S112.217,342.91,108.191,339.067Z" transform="translate(-21.16 -303.998)" fill="#f8f5f0"/>
  <path id="Pfad_10522" data-name="Pfad 10522" d="M29.044,602.858c-3.422-3.66-9.9-6.8-14.768-8.57-5.814-2.114-6.949-2.777-8.326.615-1.707,4.189,1.039,11.817,2.971,16.65a29.181,29.181,0,0,0,4.3,7.388l2.544,3.161a23.077,23.077,0,0,0,8.89,6.975,12.523,12.523,0,0,0,1.24.452c3.116.97,6.5-.423,8.688-7.532S32.466,606.518,29.044,602.858Z" transform="translate(-5.414 -315.327)" fill="#f8f5f0"/>
  <path id="Pfad_10523" data-name="Pfad 10523" d="M333.74,373.722s4.831-7.686-1.61-6.725-28.988.961-45.9,16.332-26.572,44.194-33.014,64.37-10.468,64.369-25.767,97.035-9.663,36.508-8.857,34.586,10.886-13.364,19.325-20.176c11.788-9.511,35.316-43.435,44.053-60.277,9.22-17.774,9.091-69.423,21.974-86.716C316.05,395.905,333.74,373.722,333.74,373.722Z" transform="translate(-46.615 -306.469)" fill="#f8f5f0"/>
  <path id="Pfad_10524" data-name="Pfad 10524" d="M316.619,530.37c-3.14-3-1.61-5.764,4.831-18.254,5.636-8.646,18.52-43.233,23.351-58.6s16.1-40.351,29.793-49,21.741-17.293,22.546-7.686-8.052,13.45-12.883,28.822-7.247,49.958-25.767,72.055S320.645,534.213,316.619,530.37Z" transform="translate(-65.728 -307.478)" fill="#f8f5f0"/>
  <path id="Pfad_10525" data-name="Pfad 10525" d="M492.487,496.191c-5.041,3.007-8.857,0-14.494-9.607s-6.442-30.744,3.221-33.626,24.156,0,32.208,11.529,12.883,16.333,6.442,18.254-16.1,0-21.741,6.725C495.273,492.867,495.708,494.269,492.487,496.191Z" transform="translate(-96.657 -309.806)" fill="#f8f5f0"/>
  <path id="Pfad_10526" data-name="Pfad 10526" d="M496.618,543.521a29.06,29.06,0,0,1-.805-16.332c2.416-10.568,11.273-17.293,18.52-19.215s27.377.961,29.793,2.882-10.436,6.773-15.3,11.529c-8.857,8.647-10.468,22.1-11.273,30.744-.443,4.775-.805,6.725-6.442,2.882S499.034,550.246,496.618,543.521Z" transform="translate(-100.791 -311.982)" fill="#f8f5f0"/>
  <path id="Pfad_10527" data-name="Pfad 10527" d="M551.192,461.66a6.923,6.923,0,0,0,.757-2.786c.749-7.523,3.164-24.816,8.8-29.62,8.914-7.6,8.857-18.254-4.831-18.254-15.323,0-21.741,6.725-20.936,24.979C535.741,453.1,547.126,468.539,551.192,461.66Z" transform="translate(-108.557 -308.199)" fill="#f8f5f0"/>
  <path id="Pfad_10528" data-name="Pfad 10528" d="M211.618,701.757s-4.831-5.765,2.416-5.765,21.9-.173,43.642-.173,45.365,2.921,52.178,7.859c5.8,4.2,28.987,28.822,43.481,53.8s19.325,29.783,8.857,30.744-29.793-4.8-38.65-9.608-29.97-24.412-45.9-40.351C267.693,728.312,222.891,711.365,211.618,701.757Z" transform="translate(-45.276 -319.382)" fill="#f8f5f0"/>
  <path id="Pfad_10529" data-name="Pfad 10529" d="M173.16,729.563s-14.494-1.922-11.273-6.725,6.442-5.765,21.741,0,30.6,10.568,30.6,16.332c0,4.073-6.466,4.881-17.715,0C187.654,735.327,182.017,730.524,173.16,729.563Z" transform="translate(-35.804 -320.287)" fill="#f8f5f0"/>
  <path id="Pfad_10530" data-name="Pfad 10530" d="M240.222,768.193a9.938,9.938,0,0,1-2.182-2.431c-1.216-1.931-2.319-5.025,1.345-6.9,5.636-2.882,10.468-5.765,20.935,0s16.1,10.568,24.962,15.372,26.572,11.529,39.455,36.508,4.831,32.665-4.831,27.861-31.4-34.587-41.871-41.312C268.646,791.26,244.965,772.055,240.222,768.193Z" transform="translate(-50.504 -321.727)" fill="#f8f5f0"/>
  <path id="Pfad_10531" data-name="Pfad 10531" d="M132.626,862.826a4.427,4.427,0,0,1,3.768-3.545c3.785-.346,12.223-1.874,13.471-8.541,1.61-8.647,3.221-15.372,8.052-9.608s14.494,20.176,4.026,29.783C152.619,879.475,130.516,872.029,132.626,862.826Z" transform="translate(-30.168 -325.003)" fill="#f8f5f0"/>
  <path id="Pfad_10532" data-name="Pfad 10532" d="M122.8,916.414s11.273.961,8.857-12.49-7.247-31.7-12.883-31.7-.805,3.843-4.831,13.451-12.078,17.293-7.247,24.018S122.8,916.414,122.8,916.414Z" transform="translate(-24.854 -326.308)" fill="#f8f5f0"/>
  <path id="Pfad_10533" data-name="Pfad 10533" d="M87.723,865.814c9.179-21.9,9.663-1.922,9.663,5.764s-3.221,22.1-15.3,22.1c-6.893,0-18.5-12.182-16.1-18.254C67.786,870.848,82.087,879.264,87.723,865.814Z" transform="translate(-17.152 -325.666)" fill="#f8f5f0"/>
  <path id="Pfad_10534" data-name="Pfad 10534" d="M112.592,846.81c2.52,1.72,6.49.01,3.607-7.5s-5.975-18.475-9.26-25.162-6.176-14.19-5.588-3.824S107,842.986,112.592,846.81Z" transform="translate(-24.089 -323.677)" fill="#f8f5f0"/>
  <path id="Pfad_10574" data-name="Pfad 10574" d="M50.628,569.456c10.838-5.5,45.776,18.158,50.76,28.986s7.223,22.885-1.852,28.832S79.1,620.03,73.262,611.45,59.389,589.305,54,583.147,44.38,572.627,50.628,569.456Z" transform="translate(-13.616 -314.389)" fill="#f8f5f0"/>
</svg>
