<svg xmlns="http://www.w3.org/2000/svg" xmlns:xlink="http://www.w3.org/1999/xlink" width="23" height="23" viewBox="0 0 23 23">
  <defs>
    <clipPath id="clip-path">
      <rect id="Rectangle_2523" data-name="Rectangle 2523" width="23" height="23" transform="translate(-0.091 0.045)" fill="none"/>
    </clipPath>
  </defs>
  <g id="Instagram" transform="translate(0.091 -0.045)" clip-path="url(#clip-path)">
    <path id="Path_1" data-name="Path 3" d="M11.4,2.033a34.946,34.946,0,0,1,4.559.127,5.874,5.874,0,0,1,2.153.38,4.448,4.448,0,0,1,2.153,2.153,5.874,5.874,0,0,1,.38,2.153c0,1.14.127,1.52.127,4.559a34.948,34.948,0,0,1-.127,4.559,5.874,5.874,0,0,1-.38,2.153,4.448,4.448,0,0,1-2.153,2.153,5.874,5.874,0,0,1-2.153.38c-1.14,0-1.52.127-4.559.127a34.948,34.948,0,0,1-4.559-.127,5.874,5.874,0,0,1-2.153-.38A4.448,4.448,0,0,1,2.54,18.116a5.874,5.874,0,0,1-.38-2.153c0-1.14-.127-1.52-.127-4.559A34.947,34.947,0,0,1,2.16,6.846a5.874,5.874,0,0,1,.38-2.153,4.548,4.548,0,0,1,.886-1.267A2.137,2.137,0,0,1,4.693,2.54a5.874,5.874,0,0,1,2.153-.38A34.947,34.947,0,0,1,11.4,2.033m0-2.026A37.419,37.419,0,0,0,6.719.134,7.819,7.819,0,0,0,3.934.64,4.958,4.958,0,0,0,1.908,1.906,4.958,4.958,0,0,0,.64,3.934,5.77,5.77,0,0,0,.134,6.719,37.418,37.418,0,0,0,.007,11.4,37.419,37.419,0,0,0,.134,16.09a7.819,7.819,0,0,0,.507,2.787A4.958,4.958,0,0,0,1.908,20.9a4.958,4.958,0,0,0,2.026,1.267,7.819,7.819,0,0,0,2.787.507A37.418,37.418,0,0,0,11.4,22.8a37.418,37.418,0,0,0,4.686-.127,7.819,7.819,0,0,0,2.787-.507,5.313,5.313,0,0,0,3.292-3.292,7.819,7.819,0,0,0,.507-2.787c0-1.265.125-1.646.125-4.684a37.418,37.418,0,0,0-.127-4.686,7.819,7.819,0,0,0-.507-2.787A4.958,4.958,0,0,0,20.9,1.906,4.958,4.958,0,0,0,18.876.64,7.819,7.819,0,0,0,16.09.134,37.418,37.418,0,0,0,11.4.007m0,5.572A5.732,5.732,0,0,0,5.579,11.4,5.826,5.826,0,1,0,11.4,5.579m0,9.625a3.731,3.731,0,0,1-3.8-3.8,3.731,3.731,0,0,1,3.8-3.8,3.731,3.731,0,0,1,3.8,3.8,3.731,3.731,0,0,1-3.8,3.8M17.484,3.934a1.393,1.393,0,1,0,1.393,1.393,1.393,1.393,0,0,0-1.393-1.393" transform="translate(-0.162 -0.221)" fill="#fefefc" fill-rule="evenodd"/>
  </g>
</svg>
